<svg id="Component_31_1" data-name="Component 31 – 1" xmlns="http://www.w3.org/2000/svg" width="20.434" height="20.897" viewBox="0 0 20.434 20.897">
  <path id="Path_1445" data-name="Path 1445" d="M990.862,1295.379l-3.409-3.409a1.57,1.57,0,0,0-.226-.184,1.22,1.22,0,0,0-.126-.072,1.169,1.169,0,0,0-.13-.065,1.077,1.077,0,0,0-.15-.051,1.179,1.179,0,0,0-.143-.039,1.519,1.519,0,0,0-.591,0,1.1,1.1,0,0,0-.132.036,1.213,1.213,0,0,0-.153.051,1.279,1.279,0,0,0-.139.07,1.07,1.07,0,0,0-.12.069,1.545,1.545,0,0,0-.23.188l-3.407,3.406a1.517,1.517,0,0,0,0,2.141,1.55,1.55,0,0,0,2.141,0l.822-.822v13.379a1.514,1.514,0,1,0,3.028,0V1296.7l.822.822a1.55,1.55,0,0,0,2.141,0A1.516,1.516,0,0,0,990.862,1295.379Zm-4.708-3.054Z" transform="translate(-981.465 -1290.694)" fill="#e9bebe"/>
  <path id="Path_1446" data-name="Path 1446" d="M990.434,1295.658l-3.406-3.406a.788.788,0,0,0-.116-.095c-.019-.013-.04-.021-.06-.033a.675.675,0,0,0-.07-.037.616.616,0,0,0-.078-.024.583.583,0,0,0-.063-.019.765.765,0,0,0-.3,0c-.022,0-.042.013-.064.019a.638.638,0,0,0-.078.024.736.736,0,0,0-.071.037c-.02.011-.04.019-.059.032a.791.791,0,0,0-.116.095l-3.407,3.406a.757.757,0,0,0,1.07,1.071l2.115-2.115v15.207a.757.757,0,1,0,1.514,0v-15.207l2.115,2.115a.757.757,0,0,0,1.07-1.071Z" transform="translate(-982.001 -1291.84)" fill="#868dad"/>
  <path id="Path_1447" data-name="Path 1447" d="M1009.892,1307.742l3.409,3.41a1.521,1.521,0,0,0,.226.184,1.181,1.181,0,0,0,.126.073,1.242,1.242,0,0,0,.13.066,1.146,1.146,0,0,0,.15.05,1.124,1.124,0,0,0,.143.039,1.533,1.533,0,0,0,.591,0,1.17,1.17,0,0,0,.132-.036,1.189,1.189,0,0,0,.153-.051,1.27,1.27,0,0,0,.139-.069,1.063,1.063,0,0,0,.12-.069,1.481,1.481,0,0,0,.23-.189l3.407-3.406a1.516,1.516,0,0,0,0-2.141,1.55,1.55,0,0,0-2.141,0l-.822.822v-13.38a1.514,1.514,0,0,0-3.028,0v13.38l-.822-.822a1.55,1.55,0,0,0-2.141,0A1.515,1.515,0,0,0,1009.892,1307.742Zm4.708,3.054Z" transform="translate(-998.855 -1291.529)" fill="#e9bebe"/>
  <path id="Path_1448" data-name="Path 1448" d="M1012.8,1309.949l3.406,3.407a.749.749,0,0,0,.116.095.641.641,0,0,0,.06.033.783.783,0,0,0,.07.037.643.643,0,0,0,.078.024.577.577,0,0,0,.063.019.776.776,0,0,0,.3,0,.664.664,0,0,0,.064-.019.682.682,0,0,0,.078-.024c.025-.011.047-.025.071-.037a.644.644,0,0,0,.059-.032.753.753,0,0,0,.116-.095l3.406-3.407a.757.757,0,1,0-1.071-1.07l-2.115,2.115v-15.207a.757.757,0,1,0-1.514,0v15.207l-2.115-2.115a.757.757,0,1,0-1.071,1.07Z" transform="translate(-1000.803 -1292.87)" fill="#868dad"/>
</svg>
