<svg xmlns="http://www.w3.org/2000/svg" width="19.624" height="17.444" viewBox="0 0 19.624 17.444">
  <g id="Group_1062" data-name="Group 1062" transform="translate(-1569.953 -1500.869)">
    <path id="Path_1409" data-name="Path 1409" d="M1593.723,1508.176a18.855,18.855,0,0,1-10.26-1.542,5.264,5.264,0,0,0-3.722,8.985l.1.1,6.347,6.347a.775.775,0,0,0,1.1,0l6.347-6.347h0l.094-.094a5.262,5.262,0,0,0,0-7.444Z" transform="translate(-5.688 -3.976)" fill="#f58b96"/>
    <g id="Group_1065" data-name="Group 1065" transform="translate(1569.953 1500.869)">
      <g id="Group_1062-2" data-name="Group 1062" transform="translate(7.757)">
        <path id="Path_1410" data-name="Path 1410" d="M1602.077,1510.177a.776.776,0,0,1-.549-1.323l.095-.1a3.712,3.712,0,1,0-5.249-5.25l-.095.095a.776.776,0,0,1-1.1-1.1l.1-.1a5.264,5.264,0,1,1,7.444,7.444l-.094.094A.773.773,0,0,1,1602.077,1510.177Z" transform="translate(-1594.954 -1500.869)" fill="#868cac"/>
      </g>
      <g id="Group_1063" data-name="Group 1063">
        <path id="Path_1411" data-name="Path 1411" d="M1572.139,1510.177a.774.774,0,0,1-.548-.228l-.1-.1a5.264,5.264,0,0,1,7.444-7.444l.094.094a.776.776,0,0,1-1.1,1.1l-.1-.095a3.712,3.712,0,1,0-5.251,5.249l.1.1a.776.776,0,0,1-.549,1.324Z" transform="translate(-1569.953 -1500.869)" fill="#868cac"/>
      </g>
      <g id="Group_1064" data-name="Group 1064" transform="translate(1.41 7.757)">
        <path id="Path_1412" data-name="Path 1412" d="M1581.621,1533.767a.773.773,0,0,1-.548-.227l-6.347-6.347a.776.776,0,0,1,1.1-1.1l5.8,5.8,5.8-5.8a.776.776,0,1,1,1.1,1.1l-6.347,6.347A.773.773,0,0,1,1581.621,1533.767Z" transform="translate(-1574.498 -1525.869)" fill="#868dad"/>
      </g>
    </g>
  </g>
</svg>
